<svg xmlns="http://www.w3.org/2000/svg" width="58" height="54" viewBox="0 0 58 54">
    <g fill="none">
        <path fill="#FFF" d="M24.001 43.836c-10.937 0-19.837-8.9-19.837-19.836 0-10.937 8.9-19.836 19.837-19.836S43.836 13.063 43.836 24s-8.898 19.836-19.835 19.836z" transform="translate(5 3)"/>
        <path fill="#000" d="M24.001 0C10.745 0 0 10.748 0 24s10.745 24 24.001 24C37.255 48 48 37.252 48 24S37.255 0 24.001 0zm0 43.836c-10.937 0-19.837-8.9-19.837-19.836 0-10.937 8.9-19.836 19.837-19.836S43.836 13.063 43.836 24s-8.898 19.836-19.835 19.836zM19.263 18.96c0 1.763-1.428 3.191-3.191 3.191s-3.191-1.429-3.191-3.191c0-1.763 1.429-3.191 3.191-3.191 1.763 0 3.191 1.428 3.191 3.19m14.79 14.622c.837-.787.879-2.103.09-2.94-.787-.84-2.105-.88-2.942-.093-1.96 1.845-4.516 2.857-7.2 2.857-2.685 0-5.244-1.012-7.2-2.857-.84-.787-2.155-.747-2.943.093-.79.836-.75 2.153.09 2.94 2.732 2.573 6.304 3.989 10.053 3.989 3.75 0 7.317-1.416 10.053-3.99M35.1 18.96c0 1-.81 1.81-1.81 1.81l-.038-.002h-2.66l-.038.002c-1 0-1.811-.81-1.811-1.81s.811-1.81 1.81-1.81h2.738c1 0 1.81.81 1.81 1.81z" transform="translate(5 3)"/>
    </g>
</svg>
