<svg xmlns="http://www.w3.org/2000/svg" width="58" height="54" viewBox="0 0 58 54">
    <g fill="none" transform="translate(5 3)">
        <path fill="#FFF" d="M24.15 44.85c-11.414 0-20.7-9.286-20.7-20.7s9.286-20.7 20.7-20.7 20.7 9.286 20.7 20.7-9.286 20.7-20.7 20.7z"/>
        <circle cx="15.734" cy="18.661" r="3.293" fill="#000"/>
        <circle cx="32.566" cy="18.661" r="3.293" fill="#000"/>
        <path fill="#000" d="M24.15 0C10.814 0 0 10.814 0 24.15 0 37.484 10.814 48.3 24.15 48.3c13.334 0 24.15-10.816 24.15-24.15C48.3 10.814 37.484 0 24.15 0zm0 44.85c-11.414 0-20.7-9.286-20.7-20.7s9.286-20.7 20.7-20.7 20.7 9.286 20.7 20.7-9.286 20.7-20.7 20.7z"/>
        <path fill="#000" d="M31.454 31.268c-4.03 4.23-10.582 4.23-14.61 0-.673-.709-1.761-.709-2.435 0-.673.707-.673 1.848 0 2.557 2.687 2.82 6.213 4.23 9.741 4.23 3.528 0 7.054-1.41 9.74-4.23.674-.709.674-1.85 0-2.557-.671-.707-1.764-.707-2.436 0z"/>
    </g>
</svg>
