<svg xmlns="http://www.w3.org/2000/svg" width="58" height="54" viewBox="0 0 58 54">
    <path d="M29.503 0c-5.695 0-10.668 2.874-13.537 7.656-2.425 4.04-3.362 9.38-2.278 15.396L11.36 21.38c-.418-.306-.985-.382-1.465-.196-.48.186-.858.628-.977 1.143-2.198 9.328-.276 17.09 3.917 22.427C17.028 50.089 23.395 53 29.896 53c5.408 0 10.922-2.186 14.98-6.287 4.058-4.1 6.606-10.176 6.048-17.644-.033-.412-.225-.808-.525-1.082l-5.441-5.036c1.47-4.796.805-9.797-1.336-13.903C40.878 3.788 35.71 0 29.503 0zm0 3.245c4.955 0 9.137 3.082 11.366 7.37 1.527 2.936 2.137 6.438 1.45 9.902l-1.278-1.183c-.527-.49-1.389-.542-1.967-.118l-8.391 6.169-5.376-6.44c-.733-.661-1.373-.62-2.13-.236l-6.179 4.766c-1.275-5.783-.446-10.637 1.639-14.112 2.323-3.871 6.177-6.118 10.866-6.118zm-3.671 5.949c-.58 0-1.05.484-1.05 1.082 0 .597.47 1.081 1.05 1.081.58 0 1.049-.484 1.049-1.081 0-.598-.47-1.082-1.05-1.082zm7.342 0c-.58 0-1.049.484-1.049 1.082 0 .597.47 1.081 1.05 1.081.578 0 1.048-.484 1.048-1.081 0-.598-.47-1.082-1.049-1.082zm-4.753 3.769c-1.573.314-3.205.783-4.556 1.132-.685.164-1.216.854-1.216 1.58 0 .725.53 1.415 1.216 1.58l4.196 1.082c.926.246 1.967-.586 1.966-1.572v-2.163c-.04-1.287-.818-1.714-1.606-1.64z"/>
</svg>
