<svg xmlns="http://www.w3.org/2000/svg" width="58" height="54" viewBox="0 0 58 54">
    <g>
        <path d="M28.35 27.635l-.238-.11L14 21v5.993c0 2.658 6.425 6.607 14.35 6.607s14.35-3.95 14.35-6.607V21l-14.35 6.635z" transform="translate(0 10)"/>
        <path d="M28.351 0L0 12.951 28.351 25.9 56.7 12.951z" transform="translate(0 10)"/>
        <path d="M56.087 22.883l-.002-.14c.59-.374 1.042-1.101 1.042-1.857 0-1.057-.688-1.979-1.733-2.145V12.6h-.555v6.175c-.977.237-1.788 1.056-1.788 2.043 0 .755.286 1.413.875 1.788l-.06.276L51.8 31.5h6.3l-2.013-8.617z" transform="translate(0 10)"/>
    </g>
</svg>
