<svg version="1.1" viewBox="0 0 100 100" xmlns="http://www.w3.org/2000/svg">
 <path d="m88.854 85.845-33.487-34.785 33.487-34.785c1.8399-1.906 1.8399-4.8604 0-6.7665-1.8399-1.906-4.6919-1.906-6.5318 0l-33.487 34.785-33.487-34.69c-1.8399-1.906-4.6919-1.906-6.5318 0-1.8399 1.906-1.8399 4.8604 0 6.7665l33.487 34.69-33.487 34.785c-1.8399 1.906-1.8399 4.8604 0 6.7665 1.8399 1.906 4.6919 1.906 6.5318 0l33.487-34.785 33.579 34.785c1.8399 1.906 4.6919 1.906 6.5318 0 1.748-1.906 1.748-4.9557-0.092-6.7665z" stroke-width=".93635"/>
</svg>
