<svg version="1.1" viewBox="0 0 100 100" xmlns="http://www.w3.org/2000/svg">
 <g transform="matrix(2.4926 0 0 2.4926 -10.662 -14.3)">
  <path d="m4.7315 22.579v11.362c0.00181 1.7106 1.3554 3.0968 3.0256 3.0987h1.0085v4.1316c4.751e-4 0.87563 0.99739 1.354 1.6546 0.79389l5.7706-4.9255h9.72c1.6702-0.0019 3.0238-1.3881 3.0256-3.0987v-3.0987h3.5702l5.7499 6.8688c0.6092 0.72687 1.7726 0.28653 1.7738-0.67138v-6.1974h1.0085c1.6702-0.0019 3.0238-1.3881 3.0256-3.0987v-14.461c-0.0018-1.7106-1.3554-3.0968-3.0256-3.0987h-22.188c-1.6702 0.0019-3.0238 1.3881-3.0256 3.0987v6.1974h-8.0683c-1.6702 0.0019-3.0238 1.3881-3.0256 3.0987zm14.12 6.1974c-0.55686-3.42e-4 -1.0082-0.46259-1.0085-1.0329v-14.461c3.33e-4 -0.57031 0.45168-1.0326 1.0085-1.0329h22.188c0.55686 3.42e-4 1.0082 0.46259 1.0085 1.0329v14.461c-3.34e-4 0.57031-0.45168 1.0326-1.0085 1.0329h-2.0171c-0.557 0-1.0085 0.46244-1.0085 1.0329v4.4383l-4.2774-5.1097c-0.19122-0.2293-0.47085-0.3614-0.76528-0.36152zm-12.102-6.1974c3.338e-4 -0.57031 0.45168-1.0326 1.0085-1.0329h8.0683v6.1974c0.0018 1.7106 1.3554 3.0968 3.0256 3.0987h8.0683v3.0987c-3.34e-4 0.57031-0.45168 1.0326-1.0085 1.0329h-10.085c-0.236-5.3e-5 -0.46458 0.08451-0.64607 0.23901l-4.3966 3.7534v-2.9595c0-0.57046-0.45154-1.0329-1.0085-1.0329h-2.0171c-0.55686-3.42e-4 -1.0082-0.46259-1.0085-1.0329z" stroke-width="1"/>
 </g>
</svg>
