<svg version="1.1" viewBox="0 0 100 100" xmlns="http://www.w3.org/2000/svg">
 <g stroke-width="3">
  <path d="m50.153 34.573c6.0743 0 11.015-4.0834 11.015-9.1001 0-5.0197-4.9406-9.1001-11.015-9.1001-6.0779 0-11.018 4.0804-11.018 9.1001 0 5.0167 4.9406 9.1001 11.018 9.1001zm0-15.484c4.2596 0 7.726 2.8628 7.726 6.3838 0 3.518-3.4664 6.3778-7.726 6.3778-4.2596 0-7.726-2.8599-7.726-6.3778 0-3.521 3.4664-6.3838 7.726-6.3838z"/>
  <path d="m43.886 54.305c3.4301 6.6381 4.4081 8.3732 6.2663 8.3732 1.8581 0 2.8325-1.7351 6.2663-8.3732 2.6115-5.0526 5.8642-11.344 8.5953-13.665 5.799-4.921 7.9505-8.792 7.9505-14.287 0-10.389-10.236-18.843-22.816-18.843-12.583 0-22.816 8.4539-22.816 18.843 0 5.4924 2.1515 9.3633 7.9469 14.287 2.7383 2.3214 5.991 8.6125 8.6061 13.665zm6.2663-44.076c10.765 0 19.523 7.2334 19.523 16.124 0 4.8073-1.7712 7.9334-7.0197 12.394-3.1585 2.6804-6.4075 8.9565-9.269 14.494-1.083 2.094-2.358 4.568-3.2382 5.9441-0.87655-1.3761-2.1588-3.85-3.2418-5.9441-2.8615-5.5372-6.1069-11.81-9.269-14.494-5.2412-4.4573-7.0197-7.5864-7.0197-12.394 0.0073-8.8907 8.7655-16.124 19.534-16.124z"/>
  <path d="m97.852 33.541c-0.40568-0.26026-0.94537-0.34103-1.4344-0.23034l-21.631 4.8731c-0.88017 1.1697-1.8907 2.3363-3.0933 3.518l23.511-5.2979v43.933l-27.843 6.2731v-40.394c-1.0468 1.5496-2.2059 3.5808-3.2925 5.5851v34.806l-27.84-6.2701v-28.533c-1.083-2.0043-2.2457-4.0385-3.2889-5.5851v34.118l-27.847 6.2731v-43.933l20.349-4.5859c-0.60489-0.81069-1.1555-1.6304-1.6082-2.453l-20.82 4.6847c-0.71356 0.16453-1.2098 0.70001-1.2098 1.3133v46.751c0 0.42479 0.23544 0.82266 0.64474 1.0829 0.28977 0.18248 0.64474 0.27522 0.9997 0.27522 0.14488 0 0.29339-0.01197 0.43465-0.04787l30.701-6.9163 30.701 6.9163c0.28252 0.06282 0.58316 0.06282 0.86568 0l31.136-7.012c0.71718-0.16453 1.2134-0.69702 1.2134-1.3133v-46.751c0-0.4218-0.24268-0.81967-0.64836-1.0799z"/>
 </g>
</svg>
