<svg version="1.1" viewBox="0 0 100 100" xmlns="http://www.w3.org/2000/svg">
 <g transform="matrix(1.2076 0 0 1.331 -9.584 -1285.7)">
  <path d="m16 979.37c-1.6568 0-3 1.3431-3 3 0 1.6568 1.3432 3 3 3h68c1.6568 0 3-1.3432 3-3 0-1.6569-1.3432-3-3-3zm0 21c-1.6568 0-3 1.3431-3 3 0 1.6568 1.3432 3 3 3h68c1.6568 0 3-1.3432 3-3 0-1.6569-1.3432-3-3-3zm0 21c-1.6568 0-3 1.3431-3 3 0 1.6568 1.3432 3 3 3h68c1.6568 0 3-1.3432 3-3 0-1.6569-1.3432-3-3-3z" color="#000000" overflow="visible" style="text-indent:0;text-transform:none"/>
 </g>
</svg>
