<svg enable-background="new 0 0 100 100" fill="#000000" version="1.1" viewBox="0 0 100 100" xmlns="http://www.w3.org/2000/svg">
 <g fill="#000" stroke-width="1.4222">
  <path d="m51.155 95.478c-1.8091 0-3.6324-0.48429-5.1557-1.4851-3.5617-2.3352-4.1381-6.5985-1.2893-9.5197l33.628-34.474-33.628-34.474c-2.8488-2.9212-2.2708-7.1845 1.2893-9.521 3.5633-2.3352 8.7583-1.8625 11.609 1.0587l37.753 38.705c2.4137 2.4743 2.4137 5.9893 0 8.4622l-37.753 38.706c-1.6301 1.6718-4.0313 2.5413-6.4529 2.5413z"/>
  <path d="m12.102 95.478c-1.8091 0-3.6308-0.48558-5.1541-1.4851-3.5633-2.3352-4.1397-6.5985-1.2893-9.5197l33.626-34.474-33.626-34.474c-2.8488-2.9212-2.2708-7.1845 1.2893-9.521 3.5633-2.3352 8.7583-1.8638 11.607 1.0575l37.755 38.705c2.4138 2.4743 2.4138 5.9893 0 8.4622l-37.755 38.707c-1.6301 1.6718-4.0297 2.5413-6.4529 2.5413z"/>
 </g>
</svg>
