<svg version="1.1" viewBox="0 0 100 100" xmlns="http://www.w3.org/2000/svg">
 <g transform="matrix(1.997 0 0 1.997 -13.15 -13.509)">
  <path d="m53.67 12.4a1 1 0 0 0 -1 0 18.13 18.13 0 0 1 -19.29 -1c-11.15-7.31-22.48-2.33-23-2.12a1 1 0 0 0 -0.59 0.91v45.2a1 1 0 0 0 2 0v-18.23c2.38-0.87 11.59-3.61 20.45 2.2a20.44 20.44 0 0 0 21.47 1 1 1 0 0 0 0.46 -0.84v-26.24a1 1 0 0 0 -0.5 -0.88zm-1.48 26.51a18.21 18.21 0 0 1 -18.83 -1.23 24 24 0 0 0 -13.32 -4 26.5 26.5 0 0 0 -8.23 1.32v-24c2.39-0.87 11.61-3.6 20.45 2.19a20.45 20.45 0 0 0 19.93 1.76z"/>
 </g>
</svg>
