<svg id="Layer_1" data-name="Layer 1" xmlns="http://www.w3.org/2000/svg" xmlns:xlink="http://www.w3.org/1999/xlink" viewBox="0 0 1920 1080"><defs><style>.cls-1{fill:#19725c;}.cls-2{fill:url(#linear-gradient);}.cls-3{fill:#a3725c;}.cls-4{fill:#d974a7;}</style><linearGradient id="linear-gradient" x1="445.81" y1="514.19" x2="1474.19" y2="514.19" gradientUnits="userSpaceOnUse"><stop offset="0" stop-color="#c7c5ef"/><stop offset="0.03" stop-color="#c0c3ef"/><stop offset="0.14" stop-color="#a1b9ed"/><stop offset="0.21" stop-color="#96b5ec"/><stop offset="0.27" stop-color="#81a6e6"/><stop offset="0.36" stop-color="#6692de"/><stop offset="0.46" stop-color="#5384d8"/><stop offset="0.56" stop-color="#477cd4"/><stop offset="0.66" stop-color="#4379d3"/><stop offset="0.92" stop-color="#4354d0"/></linearGradient></defs><rect class="cls-1" y="1028.38" width="1920" height="51.62"/><rect class="cls-2" x="445.81" y="-445.81" width="1028.38" height="1920" transform="translate(445.81 1474.19) rotate(-90)"/><rect class="cls-3" x="167.52" y="971.74" width="12.59" height="56.64"/><rect class="cls-1" x="144.44" y="933.44" width="55.59" height="55.59"/><rect class="cls-1" x="181.68" y="961.24" width="36.71" height="27.79"/><rect class="cls-3" x="1682.99" y="971.74" width="12.59" height="56.64"/><rect class="cls-1" x="1659.92" y="933.44" width="55.59" height="55.59"/><rect class="cls-1" x="1651" y="962.24" width="36.71" height="27.79"/><rect class="cls-4" x="1774.74" y="962.79" width="81.93" height="65.9"/><path class="cls-4" d="M1818,921.26l42.67,36.89a3.21,3.21,0,0,1-2.1,5.64h-85.33a3.21,3.21,0,0,1-2.1-5.64l42.66-36.89A3.22,3.22,0,0,1,1818,921.26Z"/></svg>