<svg id="Layer_1" data-name="Layer 1" xmlns="http://www.w3.org/2000/svg" viewBox="0 0 100 100"><defs><style>.cls-1{isolation:isolate;}.cls-2{fill:#806ea0;}.cls-3{fill:#72628f;}.cls-4{fill:#4b405e;}.cls-5{fill:#6290bc;}.cls-6{fill:#5880a8;}.cls-7{fill:#39546e;}.cls-8{fill:#ba648f;}.cls-9{fill:#a65980;}.cls-10{fill:#6d3a54;}</style></defs><g class="cls-1"><polygon class="cls-2" points="51.14 46.66 53.99 49.45 49.19 51.09 46.34 48.31 51.14 46.66"/><polygon class="cls-3" points="53.99 49.45 53.98 53.95 49.17 55.59 49.19 51.09 53.99 49.45"/><polygon class="cls-4" points="49.19 51.09 49.17 55.59 46.33 52.81 46.34 48.31 49.19 51.09"/></g><g class="cls-1"><polygon class="cls-5" points="55.3 52.91 57.79 55.33 51.37 57.53 48.88 55.11 55.3 52.91"/><polygon class="cls-6" points="57.79 55.33 57.78 59.84 51.36 62.04 51.37 57.53 57.79 55.33"/><polygon class="cls-7" points="51.37 57.53 51.36 62.04 48.87 59.62 48.88 55.11 51.37 57.53"/></g><g class="cls-1"><polygon class="cls-8" points="46.37 51.02 49.29 53.86 44.39 55.54 41.49 52.7 46.37 51.02"/><polygon class="cls-9" points="49.29 53.86 49.27 62.24 44.37 63.92 44.39 55.54 49.29 53.86"/><polygon class="cls-10" points="44.39 55.54 44.37 63.92 41.47 61.08 41.49 52.7 44.39 55.54"/></g></svg>