<?xml version="1.0" encoding="utf-8"?>
<!-- Generator: Adobe Illustrator 26.0.2, SVG Export Plug-In . SVG Version: 6.00 Build 0)  -->
<svg version="1.1" id="Layer_1" xmlns="http://www.w3.org/2000/svg" xmlns:xlink="http://www.w3.org/1999/xlink" x="0px" y="0px"
	 viewBox="0 0 1080 1080" style="enable-background:new 0 0 1080 1080;" xml:space="preserve">
<style type="text/css">
	.st0{fill:#4354d0
;}
</style>
<g>
	<g>
		<path class="st0" d="M514.17,863.04c-71.48-0.01-142.05-24.33-198.7-68.48c-28.55-22.25-52.95-48.9-72.51-79.2
			c-20.34-31.51-35.01-66.33-43.59-103.49c-17.08-73.94-7.28-151.97,27.59-219.73c34.87-67.76,92.68-121.09,162.77-150.15
			c40.05-16.6,81.96-25.02,124.59-25.02c33.55,0,66.81,5.25,98.87,15.6c31.64,10.22,61.43,25.18,88.53,44.47
			c56.25,40.04,97.46,95.95,119.16,161.66c0.13,0.38,0.09,0.81-0.09,1.17s-0.52,0.64-0.9,0.75l-65.47,20.89
			c-0.15,0.05-0.31,0.07-0.46,0.07c-0.65,0-1.24-0.43-1.44-1.04c-17.08-51.53-49.44-95.37-93.58-126.76
			c-43.32-30.81-94.17-47.09-147.06-47.09c-23.43,0-46.83,3.29-69.53,9.77c-34.28,9.79-65.45,26.28-92.63,49.02
			c-26.17,21.9-47.41,48.5-63.13,79.07c-15.72,30.57-25,63.33-27.58,97.36c-2.68,35.34,2.04,70.29,14.03,103.87
			c35.93,100.64,131.87,168.26,238.73,168.25c26.1,0,52.05-4.06,77.15-12.07c0.53-0.17,4.66-1.09,10.13-1.09
			c9.73,0,26.96,3.02,33.03,23.25c8.48,28.27-19.34,43.45-19.64,43.54c-31.96,10.2-65.01,15.37-98.22,15.37
			C514.19,863.04,514.18,863.04,514.17,863.04z"/>
		<path class="st0" d="M514.32,218.47c135.09,0.01,260.61,85.87,305.13,220.69c0,0.01,0,0.02-0.01,0.02l-65.49,20.89c0,0,0,0-0.01,0
			c-0.01,0-0.01,0-0.02-0.01c-35.41-106.86-134.93-174.88-242.06-174.88c-23.15,0-46.66,3.18-69.94,9.82
			C300.6,335.36,222.19,487.86,271.61,626.28c36.99,103.61,134.9,169.25,240.14,169.25c25.69,0,51.82-3.91,77.61-12.14
			c0.31-0.1,4.27-1.02,9.68-1.02c10.32,0,25.94,3.36,31.59,22.18c8.02,26.73-18.14,41.52-18.66,41.69
			c-32.5,10.37-65.41,15.3-97.79,15.3c-144.64,0-278.32-98.43-313.34-250.01c-35.15-152.15,45.22-308.35,189.47-368.15
			C431.19,226.42,473.19,218.46,514.32,218.47 M514.32,215.47c0,0-0.02,0-0.02,0c-42.81,0-84.92,8.46-125.15,25.14
			c-35.7,14.8-68.11,35.64-96.3,61.94c-27.4,25.55-50.02,55.46-67.23,88.91c-17.21,33.45-28.41,69.24-33.28,106.39
			c-5.01,38.23-3.14,76.71,5.56,114.37c8.62,37.33,23.36,72.3,43.8,103.96c19.65,30.44,44.16,57.22,72.85,79.57
			c28.25,22.02,59.73,39.14,93.59,50.88c34.26,11.89,69.93,17.91,106.04,17.91c33.39,0,66.59-5.19,98.7-15.44
			c1.07-0.34,8.14-4.53,13.97-11.87c7.93-10,10.23-21.59,6.65-33.53c-6.35-21.16-24.32-24.32-34.46-24.32
			c-5.74,0-9.99,0.97-10.59,1.16c-24.95,7.96-50.75,12-76.69,12c-25.7,0-51.21-3.95-75.81-11.74c-24.29-7.69-47.21-18.96-68.14-33.5
			c-43.33-30.11-75.61-72.3-93.36-122.03c-11.92-33.38-16.61-68.12-13.94-103.25c2.57-33.83,11.79-66.4,27.42-96.79
			c15.62-30.39,36.74-56.84,62.76-78.61c27.02-22.61,58-39,92.08-48.73c22.57-6.44,45.82-9.71,69.12-9.71
			c26.17,0,52.11,4.09,77.12,12.15c24.69,7.96,47.92,19.62,69.07,34.66c43.88,31.2,76.05,74.78,93.03,126.01
			c0.41,1.23,1.57,2.07,2.86,2.07c0.29,0,0.58-0.04,0.85-0.12c0.02-0.01,0.04-0.01,0.07-0.02l65.49-20.89
			c0.76-0.24,1.4-0.79,1.77-1.5c0.37-0.71,0.43-1.56,0.18-2.32c-11-33.31-27.12-64.34-47.91-92.22
			c-20.12-26.98-44.28-50.6-71.8-70.19c-27.22-19.38-57.15-34.41-88.94-44.67C581.44,220.74,548.02,215.47,514.32,215.47
			L514.32,215.47z"/>
	</g>
	<g>
		<path class="st0" d="M824.46,600.34c-3.45,0-6.76-1.08-9.58-3.13L693.1,508.69c-5.02-3.65-7.52-9.71-6.53-15.83
			c0.99-6.12,5.27-11.09,11.18-12.98l169.79-54.18c1.66-0.53,3.36-0.8,5.05-0.8c5.2,0,10.15,2.57,13.24,6.88
			c3.09,4.3,3.89,9.66,2.18,14.72L840,589.2C837.76,595.86,831.51,600.34,824.46,600.34z"/>
		<path class="st0" d="M872.58,426.4c9.66,0,17.36,9.63,14,19.62l-48.01,142.7c-2.14,6.38-8.03,10.13-14.11,10.13
			c-2.99,0-6.03-0.9-8.7-2.85l-121.78-88.52c-9.85-7.16-7.38-22.47,4.22-26.17l169.79-54.18
			C869.55,426.64,871.09,426.4,872.58,426.4 M872.58,423.4C872.58,423.4,872.58,423.4,872.58,423.4c-1.85,0-3.7,0.29-5.51,0.87
			l-169.79,54.18c-6.45,2.06-11.12,7.49-12.2,14.17s1.65,13.31,7.13,17.29L814,598.42c3.08,2.24,6.7,3.42,10.46,3.42
			c7.69,0,14.51-4.89,16.96-12.17l48.01-142.7c1.86-5.52,0.99-11.38-2.39-16.07C883.67,426.21,878.26,423.4,872.58,423.4
			L872.58,423.4z"/>
	</g>
</g>
</svg>
