<svg xmlns="http://www.w3.org/2000/svg" width="68" height="58" viewBox="0 0 68 58">
    <g fill="none" fill-rule="evenodd">
        <g>
            <g>
                <g>
                    <g>
                        <g fill="#000" fill-rule="nonzero">
                            <path d="M19.606 29.413L17.3 31.719l.605.598L3.22 47 0 43.775l14.678-14.673.6.599 2.306-2.311c-5.217-6.194-5.217-15.25 0-21.455C23.51-1.11 34.022-2.008 41.067 3.912c7.041 5.932 7.944 16.438 2.018 23.477-5.926 7.045-16.433 7.955-23.479 2.024zm25.522-12.751c0-8.175-6.624-14.794-14.789-14.794-8.175 0-14.799 6.62-14.799 14.794 0 8.175 6.625 14.804 14.8 14.804 8.164 0 14.788-6.63 14.788-14.804z" transform="translate(-239 -417) translate(209 406) translate(30 11) translate(11 11)"/>
                        </g>
                        <path fill="#000" fill-rule="nonzero" d="M39.397 13.113c-.393-1.113-.927-2.048-1.507-2.623-.119-.119-.274-.183-.443-.183-.17 0-.324.064-.443.183-.242.242-.242.638 0 .885.452.451.895 1.25 1.224 2.194.333.967.52 1.989.52 2.878 0 .137-.004.347-.009.461-.009.169.05.324.165.447.114.123.265.196.434.2h.027c.334 0 .608-.26.626-.597.004-.141.009-.37.009-.515 0-1.04-.215-2.226-.603-3.33zM25.34 9.856c.132 0 .256-.041.365-.119 1.366-.976 3.024-1.492 4.796-1.492 1.863 0 3.658.675 5.193 1.953.114.091.256.146.402.146.187 0 .36-.082.48-.224.219-.264.182-.657-.078-.88C34.729 7.775 32.66 7 30.5 7c-2.037 0-3.946.598-5.526 1.724-.137.096-.224.242-.252.406-.027.165.01.329.11.466.114.164.306.26.507.26zm-3.088 6.587c0-1.994.722-3.914 2.033-5.415.11-.128.164-.287.15-.452-.009-.164-.086-.319-.214-.428-.114-.1-.26-.155-.411-.155-.183 0-.352.077-.47.214C21.83 11.936 21 14.148 21 16.443c0 1.496.27 2.682.703 4.115.083.264.32.442.599.442.06 0 .123-.01.182-.027.16-.05.293-.155.37-.301.078-.146.096-.315.046-.475-.402-1.323-.649-2.408-.649-3.754z" transform="translate(-239 -417) translate(209 406) translate(30 11) translate(11 11)"/>
                        <path fill="#000" fill-rule="nonzero" d="M35.588 10.75C34.258 9.604 32.63 9 30.876 9c-2.354 0-4.454.86-5.92 2.422-1.4 1.489-2.087 3.466-1.935 5.563.112 1.581.292 2.451.453 3.22.21 1.02.375 1.827.248 4.065-.02.324.18.614.488.706.058.02.112.024.175.024.35 0 .643-.276.668-.624.14-2.436-.04-3.32-.268-4.442-.152-.73-.322-1.556-.43-3.05-.126-1.726.44-3.35 1.58-4.568 1.208-1.29 2.967-2.001 4.94-2.001 1.428 0 2.754.493 3.836 1.426 1.086.933 1.91 2.291 2.387 3.92.556 1.9.707 4.317.444 6.985-.034.362.234.686.6.725.019 0 .043.005.062.005.346 0 .63-.256.663-.6.283-2.837.112-5.423-.492-7.482-.54-1.866-1.506-3.442-2.787-4.544z" transform="translate(-239 -417) translate(209 406) translate(30 11) translate(11 11)"/>
                        <path fill="#000" fill-rule="nonzero" d="M35.689 16.01c-.252-1.813-.849-3.326-1.731-4.38-.887-1.064-2.021-1.63-3.279-1.63-.81 0-1.607.198-2.306.58-.158.087-.273.247-.316.44-.042.199-.004.402.107.561.11.165.277.257.46.257.09 0 .17-.025.252-.063.537-.29 1.16-.445 1.799-.445.955 0 1.812.445 2.485 1.286.687.86 1.164 2.108 1.369 3.607.2 1.432.298 2.587.303 3.535.008 1.92-.205 3.516-.205 3.535-.026.174.013.348.107.493.093.145.226.237.379.266.03.005.06.01.09.01.29 0 .532-.237.575-.561.009-.068.23-1.702.222-3.748 0-1.03-.103-2.248-.311-3.742zm-8.024-3.094c.17-.28.124-.658-.107-.88-.106-.102-.238-.155-.375-.155-.192 0-.37.106-.481.285-.627 1.04-.84 2.375-.614 3.86.38 2.48.72 5.371.4 7.978-.02.184.022.372.124.517.098.145.243.232.4.247.018 0 .035.005.052.005.29 0 .537-.247.575-.57.35-2.791-.008-5.813-.405-8.405-.174-1.151-.03-2.123.431-2.882zm5.636 8.922h-.021c-.324.014-.576.319-.563.686 0 .01.026.866-.11 1.678-.056.334.11.663.387.764.06.02.12.034.183.034.282 0 .52-.227.572-.537.162-.972.132-1.944.132-1.987-.009-.363-.264-.638-.58-.638z" transform="translate(-239 -417) translate(209 406) translate(30 11) translate(11 11)"/>
                        <path fill="#000" fill-rule="nonzero" d="M31.405 13.77c-.489-.502-1.099-.77-1.766-.77-.863 0-1.6.35-2.075.982-.361.483-.74 1.379-.475 2.873.536 2.992.654 5.822.353 8.408-.043.359.192.69.515.732.026.005.052.005.074.005.3 0 .553-.244.593-.575.318-2.729.196-5.698-.362-8.83-.14-.784-.061-1.402.222-1.785.244-.326.654-.503 1.15-.503 1.09 0 1.53 1.322 1.67 1.887.301 1.23.475 3.016.502 5.157.004.354.27.646.597.646h.009c.156-.005.305-.072.418-.196.109-.125.17-.292.17-.465-.03-2.25-.218-4.142-.545-5.477-.213-.886-.57-1.59-1.05-2.088z" transform="translate(-239 -417) translate(209 406) translate(30 11) translate(11 11)"/>
                        <path fill="#000" fill-rule="nonzero" d="M30.2 16.338c-.095-.203-.323-.338-.578-.338-.082 0-.164.016-.237.04-.319.115-.47.433-.337.711.3.636.538 1.836.642 3.29.11 1.466.078 3.056-.09 4.355-.019.143.027.286.131.401.105.116.251.183.42.199.022.004.045.004.068.004.319 0 .583-.207.62-.485.177-1.41.21-3.043.09-4.601-.113-1.562-.373-2.833-.728-3.576z" transform="translate(-239 -417) translate(209 406) translate(30 11) translate(11 11)"/>
                    </g>
                </g>
            </g>
        </g>
    </g>
</svg>
