<svg xmlns="http://www.w3.org/2000/svg" width="68" height="58" viewBox="0 0 68 58">
    <g fill="none" fill-rule="evenodd">
        <g fill="#000" fill-rule="nonzero">
            <g>
                <g>
                    <g>
                        <path d="M12.724.354c-3.325 0-6.03 2.437-6.473 5.626H4.965L.887 3.765 0 5.315l2.882 1.551L0 8.416l.842 1.55 4.079-2.214h5.098c.355 1.107 1.419 1.905 2.66 1.905 1.552 0 2.793-1.24 2.793-2.791 0-1.55-1.241-2.79-2.793-2.79-1.241 0-2.26.797-2.66 1.904H7.98c.399-2.215 2.35-3.854 4.7-3.854 2.615 0 4.787 2.127 4.787 4.74 0 2.614-2.128 4.74-4.788 4.74-1.64 0-3.103-.842-3.945-2.082h-2.04c1.02 2.259 3.325 3.854 5.985 3.854 3.636 0 6.562-2.924 6.562-6.512 0-3.588-2.926-6.512-6.517-6.512zM40.077 53.466c-2.793-1.506-6.118-1.506-8.91 0l-.577.31-.576-.31c-2.793-1.506-6.118-1.506-8.911 0l-.577.31-.576-.31c-2.793-1.506-6.118-1.506-8.911 0l-.576.31-.577-.31c-2.704-1.461-5.896-1.506-8.645-.133v2.481c2.97-1.196 6.34-1.063 9.222.399 3.192-1.64 6.916-1.64 10.108 0 3.192-1.64 6.916-1.64 10.108 0 3.28-1.64 7.093-1.64 10.33.133H66.5v-2.658H40.432l-.355-.222zM10.374 47.353c3.192-1.639 6.916-1.639 10.108 0 3.192-1.639 6.916-1.639 10.108 0 3.28-1.639 7.093-1.639 10.33.133H66.5v-2.658H40.432l-.355-.177c-2.793-1.506-6.118-1.506-8.91 0l-.577.31-.576-.31c-2.793-1.506-6.118-1.506-8.911 0l-.577.31-.576-.31c-2.793-1.506-6.118-1.506-8.911 0l-.576.31-.577-.31c-2.704-1.462-5.896-1.506-8.645-.133V47c2.882-1.24 6.207-1.107 9.133.354zM40.077 49.08c-2.793-1.505-6.118-1.505-8.91 0l-.577.311-.576-.31c-2.793-1.506-6.118-1.506-8.911 0l-.577.31-.576-.31c-2.793-1.506-6.118-1.506-8.911 0l-.576.31-.577-.31c-2.704-1.462-5.896-1.506-8.645-.133v2.48c2.97-1.195 6.34-1.062 9.222.4 3.192-1.64 6.916-1.64 10.108 0 3.192-1.64 6.916-1.64 10.108 0 3.28-1.64 7.093-1.64 10.33.132H66.5v-2.658H40.432l-.355-.221zM46.86 27.774H60.382V38.494H46.86zM29.526 38.051v-6.91h8.423v6.423c.931.221 1.862.531 2.705.974h4.433v-11.65c0-6.91-5.187-12.536-11.571-12.536-6.384 0-11.571 5.626-11.571 12.536v10.986c2.483-.798 5.143-.753 7.581.177zM30.9 21.794h5.187v3.677H30.9v-3.677z" transform="translate(-104 -423) translate(74 412) translate(30 11) translate(1 1)"/>
                        <path d="M46.816 26.002h13.522c-.444-6.511-5.453-11.65-11.527-11.65h-8.867c3.902 2.304 6.606 6.645 6.872 11.65zM10.551 32.868h4.345l.576 4.43c.621 0 1.197.044 1.818.177l-2.66-20.997h2.882v-1.771H7.936v1.771h2.881L8.113 37.697c.576.133 1.153.354 1.729.62l.71-5.449zm2.084-16.434h.177l.843 6.556h-1.862l.842-6.556zm-1.064 8.328h2.305l.798 6.334h-3.901l.798-6.334zM40.077 40.222c-2.793-1.507-6.118-1.507-8.91 0l-.577.31-.576-.31c-2.793-1.507-6.118-1.507-8.911 0l-.577.31-.576-.31c-2.793-1.507-6.118-1.507-8.911 0l-.576.31-.577-.31c-2.704-1.462-5.896-1.507-8.645-.133v2.48c2.97-1.196 6.34-1.063 9.222.399 3.192-1.639 6.916-1.639 10.108 0 3.192-1.639 6.916-1.639 10.108 0 3.28-1.639 7.093-1.639 10.33.133H66.5v-2.658H40.432l-.355-.221z" transform="translate(-104 -423) translate(74 412) translate(30 11) translate(1 1)"/>
                    </g>
                </g>
            </g>
        </g>
    </g>
</svg>
