<svg xmlns="http://www.w3.org/2000/svg" width="68" height="58" viewBox="0 0 68 58">
    <g fill="none" fill-rule="evenodd">
        <g fill="#000">
            <g>
                <g>
                    <g>
                        <g fill-rule="nonzero" transform="translate(-57 -267) translate(27 256) translate(30 11) translate(1 17)">
                            <ellipse cx="31" cy="7" stroke="#FFF" stroke-width=".7" rx="20.35" ry="7.35"/>
                            <path d="M59.405 1.127c.328-.261.595-.106.595.343V41h-1.682c-1.015 0-1.681-.481-1.681-2.123 0-1.286.356-10.754.483-14.086h-1.39c-.4 0-.73-.367-.73-.816v-9.263c0-10.081 4.405-13.585 4.405-13.585zM8 13.533L7.757 2.426C7.75 2.195 7.565 2.005 7.33 2c-.239-.005-.438.185-.443.426l-.244 11.107v.03c0 .005 0 .01.002.015l-.002.023h-.86c.002-.023.002-.046.002-.068L5.542 2.426c-.006-.231-.191-.421-.424-.426-.24-.005-.44.185-.444.426L4.43 13.533v.03l.002.038h-.864c.002-.023.002-.046.002-.068L3.327 2.426c-.006-.231-.192-.421-.424-.426-.24-.005-.44.185-.445.426l-.243 11.107v.03l.002.038h-.861v-.025-.043L1.112 2.426C1.106 2.195.92 2.005.687 2c-.24-.005-.438.185-.444.426L0 13.533v2.109c0 1.564 1.2 2.853 2.723 2.985l-.635 20.851C2.062 40.315 2.723 41 3.557 41h.881c.834 0 1.495-.685 1.47-1.522l-.632-20.85C6.8 18.494 8 17.205 8 15.641v-2.041-.025-.043z"/>
                            <path stroke="#FFF" stroke-width=".7" d="M51.344-3.461l.006 37.554c0 1.024-.565 2.014-1.64 2.91-1.04.867-2.562 1.651-4.454 2.305-3.648 1.26-8.688 2.042-14.256 2.042-5.49 0-10.467-.76-14.103-1.99-1.885-.637-3.414-1.403-4.477-2.251-1.102-.879-1.709-1.852-1.766-2.86h0L10.65 8h.7c0 .847.512 1.642 1.389 2.373.987.823 2.437 1.56 4.233 2.18 3.59 1.24 8.55 2.004 14.028 2.004 5.402 0 10.3-.743 13.878-1.953 1.795-.606 3.253-1.328 4.266-2.136.904-.72 1.452-1.505 1.502-2.343h0l.698-11.586z"/>
                        </g>
                        <g stroke="#FFF" transform="translate(-57 -267) translate(27 256) translate(30 11) translate(1 17) translate(50 11)">
                            <path d="M.922 4.992C.406 4.892 0 3.815 0 2.5 0 1.12.448 0 1 0h15v5H1z"/>
                            <ellipse cx="16" cy="2.5" rx="1" ry="2.5"/>
                        </g>
                    </g>
                </g>
            </g>
        </g>
    </g>
</svg>
