<svg xmlns="http://www.w3.org/2000/svg" width="68" height="58" viewBox="0 0 68 58">
    <g fill="none" fill-rule="evenodd">
        <g fill="#000" fill-rule="nonzero">
            <g>
                <g>
                    <g>
                        <path d="M.324 20.968H49.376V28.195999999999998H.324zM10.912 16.919H38.787V18.535H10.912zM25.93 1.078C25.93.43 25.39 0 24.85 0s-1.08.539-1.08 1.078v13.578h2.16V1.078zM28.199 1.078H34.79V8.19H28.199zM24.85 44.469c-2.377 0-4.322 1.94-4.322 4.31V57.4h8.644v-8.621c0-2.37-1.945-4.31-4.322-4.31z" transform="translate(-228 -315) translate(198 304) translate(30 11) translate(9)"/>
                        <path d="M4.106 57.4h14.153v-8.621c0-3.556 2.918-6.574 6.591-6.574s6.59 2.91 6.59 6.574V57.4h14.154V30.352H4.106V57.4zm31.548-23.708h5.619v5.604h-5.619v-5.604zm0 14.44h5.619v5.604h-5.619v-5.604zm-13.613-14.44h5.618v5.604h-5.618v-5.604zm-13.614 0h5.619v5.604H8.427v-5.604zm0 14.44h5.619v5.604H8.427v-5.604z" transform="translate(-228 -315) translate(198 304) translate(30 11) translate(9)"/>
                    </g>
                </g>
            </g>
        </g>
    </g>
</svg>
